# xmcd CD database file
#
# Track frame offsets:
#	150
#	20423
#	64248
#	89412
#	111068
#	156373
#	211178
#	230813
#
# Disc length: 3841 seconds
#
# Revision: 0
# Processed by: cddbd v1.5.1PL2 Copyright (c) Steve Scherf et al.
# Submitted via: CDex 1.51
#
DISCID=690eff08
DTITLE=Triage - American Mythology
DYEAR=2004
DGENRE=Jazz
TTITLE0=2187
TTITLE1=Rust Belt
TTITLE2=Crystal Set
TTITLE3=White Flies
TTITLE4=Sidelights
TTITLE5=Rong Tones
TTITLE6=In The Afternoon
TTITLE7=Bus Stop Break Up
EXTD=YEAR: 2004
EXTT0=
EXTT1=
EXTT2=
EXTT3=
EXTT4=
EXTT5=
EXTT6=
EXTT7=
PLAYORDER=
